<svg xmlns="http://www.w3.org/2000/svg" xmlns:xlink="http://www.w3.org/1999/xlink" version="1.1" viewBox="769.60 642.08 524.17 789.79" xml:space="preserve">
<path fill="#020202" opacity="1.000000" stroke="none" 
	d="
M1233.407227,861.650513 
	C1242.866089,869.253296 1253.207153,874.238159 1262.298096,881.996704 
	C1269.672363,883.919250 1274.009888,889.202332 1278.868896,893.561462 
	C1283.770508,897.958923 1281.374268,902.452393 1277.789062,906.539429 
	C1270.600830,914.733704 1263.424927,922.938782 1255.899780,931.797241 
	C1249.073364,940.125305 1240.870728,946.253662 1234.910767,955.394897 
	C1228.396118,961.466492 1224.516968,959.106201 1221.910156,952.483459 
	C1219.626221,946.681030 1218.674561,940.461548 1216.197510,933.933960 
	C1210.370117,915.763977 1201.779175,899.781860 1191.482422,883.863464 
	C1189.063721,879.622803 1186.397461,876.492188 1182.770752,873.262573 
	C1178.710205,869.320068 1175.483154,865.487610 1171.298096,862.706604 
	C1157.648560,853.637085 1144.517700,854.812988 1131.994385,866.695557 
	C1127.838379,871.116699 1125.045166,875.530884 1123.385254,881.489746 
	C1118.118896,898.300598 1116.455811,914.826233 1116.392578,932.457458 
	C1113.792236,951.654419 1115.837646,970.083740 1114.965820,989.381348 
	C1115.393555,1006.886047 1115.242188,1023.452759 1115.008423,1040.978271 
	C1115.390991,1058.617065 1115.258667,1075.297974 1115.012573,1092.939941 
	C1115.401855,1111.202881 1115.234619,1128.505859 1115.019287,1146.756104 
	C1115.390869,1163.902710 1115.102905,1180.104126 1115.057373,1197.159180 
	C1114.199829,1204.694580 1117.269409,1207.557495 1123.853516,1207.179565 
	C1126.412964,1207.032471 1128.992798,1207.054810 1132.404297,1207.143555 
	C1148.878784,1206.438232 1164.578857,1207.855957 1181.093994,1205.639404 
	C1188.804810,1207.573853 1195.766113,1207.029907 1202.678467,1207.278687 
	C1212.858765,1207.645142 1214.291870,1209.356689 1213.478027,1220.749146 
	C1210.350952,1224.750244 1206.567871,1224.623657 1202.024658,1224.856689 
	C1196.572266,1224.852539 1191.978638,1224.276978 1186.601685,1225.581055 
	C1185.162720,1225.800415 1184.579346,1225.851318 1183.114014,1225.893799 
	C1165.778687,1224.161011 1149.270996,1225.409058 1131.940063,1224.927368 
	C1128.878418,1224.809814 1126.670288,1224.762329 1123.688477,1224.786377 
	C1112.580322,1224.288086 1115.126221,1231.909668 1114.799072,1238.493652 
	C1115.042725,1243.262085 1115.057495,1247.237305 1114.898926,1252.116455 
	C1115.386719,1268.667480 1115.186646,1284.317139 1114.999023,1300.902710 
	C1115.380249,1317.980957 1115.088989,1334.125000 1115.046143,1351.141968 
	C1114.698975,1363.815308 1114.912964,1375.543823 1116.404907,1387.326172 
	C1117.437012,1395.476318 1120.703735,1400.837646 1129.206299,1403.798584 
	C1131.607422,1404.885254 1133.018433,1405.927368 1134.817139,1407.909546 
	C1136.874878,1413.015137 1137.203003,1417.170166 1132.518188,1420.994141 
	C1114.379150,1420.993652 1097.107910,1421.199341 1078.912842,1420.969482 
	C1061.898438,1421.649048 1045.776611,1420.337158 1028.774048,1421.872314 
	C1011.180420,1420.235840 994.459473,1420.873291 976.809448,1420.874756 
	C971.566895,1421.276245 967.255798,1421.298950 962.963501,1420.984619 
	C953.515564,1420.292358 952.088867,1418.632080 952.305176,1407.788330 
	C953.586487,1405.153931 955.211121,1404.317749 957.817505,1403.427856 
	C967.408691,1401.221313 969.540527,1394.342163 970.507019,1386.838257 
	C971.904663,1375.987549 970.860046,1365.061768 971.111084,1353.292725 
	C970.661133,1336.880859 970.786438,1321.348511 971.009155,1304.873291 
	C970.579407,1287.457520 970.839111,1270.982910 970.968506,1253.594482 
	C970.748413,1246.422974 970.806213,1240.156860 970.924805,1233.903442 
	C971.045349,1227.549316 968.057861,1225.106323 961.930115,1225.084961 
	C949.738892,1225.042358 937.545471,1225.308228 924.437744,1224.952637 
	C907.020569,1225.402954 890.520203,1225.233765 873.065430,1225.009766 
	C855.537170,1225.405029 838.961853,1225.189087 821.446655,1225.024170 
	C810.888184,1225.214478 801.266357,1225.335083 791.655151,1224.855225 
	C786.666138,1224.606323 782.396423,1223.069336 781.841675,1217.115479 
	C781.322144,1211.539673 784.165894,1208.197632 789.399780,1207.151855 
	C798.845459,1205.264526 801.114502,1199.033447 800.971313,1190.352783 
	C800.736084,1176.093994 800.678589,1161.823242 801.032593,1146.615479 
	C800.613342,1129.034912 800.719910,1112.397583 800.997192,1094.791992 
	C800.504333,1059.962769 800.721558,1026.100830 800.958252,991.268188 
	C800.591858,971.568665 800.730957,952.839294 800.978577,933.145020 
	C800.611206,915.472290 800.743347,898.763672 800.985840,881.093140 
	C800.618225,864.095459 800.745789,848.058777 800.988647,831.061707 
	C800.606140,813.451660 800.762451,796.801086 800.983887,779.199585 
	C800.608459,761.900696 800.874756,745.550964 800.979492,728.303833 
	C800.620544,714.295227 802.125793,701.125854 799.954468,688.071472 
	C799.205139,683.566284 798.838013,678.852844 794.298340,675.027710 
	C791.851074,673.494263 789.962830,672.953796 787.979919,672.707153 
	C782.601196,672.038452 779.601074,669.224304 779.722473,663.576965 
	C779.848267,657.728027 783.755066,655.920166 788.670837,654.862122 
	C798.446655,652.758240 808.280640,652.518433 819.107178,653.572754 
	C836.607849,656.144470 853.298950,654.233582 870.845825,655.018799 
	C888.384155,654.460632 905.046326,655.755920 922.555542,653.828857 
	C933.825012,655.881775 943.994080,652.084778 954.322205,652.978760 
	C960.248230,653.491760 965.878479,654.001221 966.525269,661.725586 
	C967.111023,668.721008 963.579956,672.245667 956.151794,673.565430 
	C949.487305,675.654724 947.429260,680.008789 946.258423,685.666992 
	C943.486694,699.062561 946.499146,712.847351 943.168701,727.039062 
	C942.979492,744.011780 943.378845,760.105225 942.987732,777.136292 
	C943.414490,794.530640 943.147705,810.986633 943.024902,828.371948 
	C943.313171,844.570251 942.772034,859.845642 943.515625,875.996826 
	C943.802368,877.479980 943.876709,878.079102 943.968201,879.579651 
	C942.532043,897.448242 942.281677,914.416077 944.094360,932.260986 
	C944.439392,934.904968 944.414124,936.674500 944.172607,939.317383 
	C942.214539,949.306396 943.145935,958.539368 942.889282,968.594482 
	C942.802246,971.219177 943.004517,972.974182 942.852661,975.618652 
	C943.083191,980.712524 943.054443,984.916687 942.894409,990.041992 
	C943.394226,1007.261292 943.164124,1023.561279 943.001343,1040.801025 
	C943.292969,1052.404907 943.164673,1063.069946 942.981934,1074.673950 
	C943.138733,1081.255737 943.243652,1086.898438 942.947388,1093.487061 
	C943.389282,1110.941284 943.218933,1127.450928 943.006165,1144.905273 
	C943.409729,1162.718506 943.110596,1179.588745 943.056885,1197.313721 
	C942.403442,1204.442505 945.292603,1207.309448 951.546021,1207.112793 
	C957.431213,1206.927612 963.343201,1207.585815 969.935364,1206.266602 
	C972.158264,1205.040649 973.029236,1203.606201 972.980713,1201.906372 
	C972.456848,1183.560913 974.146606,1165.173462 971.767212,1145.972168 
	C970.112671,1128.728149 971.010376,1112.343018 970.999756,1095.023193 
	C970.587341,1077.669678 970.881042,1061.260498 970.971313,1043.937012 
	C971.413513,1029.385986 969.636292,1015.654358 973.092041,1001.325317 
	C973.746521,998.927063 974.302856,997.387268 974.988098,995.078491 
	C975.237122,993.291687 975.326599,992.268188 975.431030,990.480469 
	C975.500671,989.211121 975.536621,988.704285 975.664612,987.441772 
	C979.588196,968.951111 984.927673,951.733643 993.629761,934.901245 
	C1002.664246,918.375305 1014.173157,904.557861 1026.188965,890.248535 
	C1029.209595,886.458984 1033.424438,885.239868 1036.554932,881.587036 
	C1038.976196,879.141174 1041.122070,877.402649 1043.709473,875.092957 
	C1056.103149,867.945068 1067.721558,860.870850 1080.347656,853.999023 
	C1096.968140,849.624695 1112.371704,843.304993 1129.984131,843.185486 
	C1147.536255,842.156738 1164.242310,839.197144 1181.781738,843.296021 
	C1196.689209,846.069946 1210.533447,849.499634 1223.687012,855.333313 
	C1227.024536,856.813599 1230.553711,857.936096 1233.407227,861.650513 
z"/>
</svg>