<svg version="1.1" id="Layer_1" xmlns="http://www.w3.org/2000/svg" xmlns:xlink="http://www.w3.org/1999/xlink"
	  viewBox="248.14 451.14 1565.47 1047.82"  xml:space="preserve">
<path fill="#030303" opacity="1.000000" stroke="none" 
	d="
M1749.910889,1235.434692 
	C1764.180054,1235.434692 1778.449219,1235.434692 1793.474121,1235.434692 
	C1793.474121,1244.134521 1793.474121,1251.885254 1793.474121,1260.753540 
	C1775.773193,1260.753540 1757.985596,1260.753540 1739.293213,1260.753540 
	C1738.139404,1272.202148 1738.692993,1282.594849 1738.894775,1293.844238 
	C1753.583984,1293.844238 1767.416748,1293.844238 1782.314087,1293.844238 
	C1782.314087,1299.203979 1782.314087,1303.765137 1782.401123,1310.123657 
	C1782.194336,1314.058838 1781.900635,1316.196777 1781.506226,1319.067505 
	C1770.654175,1319.067505 1760.431030,1319.067505 1749.396118,1318.791870 
	C1745.691406,1318.516235 1742.798462,1318.516235 1739.273926,1318.516235 
	C1739.273926,1330.709595 1739.273926,1342.066772 1739.273926,1354.467896 
	C1743.050903,1354.253784 1746.544312,1354.055786 1750.946777,1354.005127 
	C1759.242554,1354.075928 1766.629272,1353.999634 1774.766602,1354.174805 
	C1779.144287,1354.454224 1782.804565,1354.191406 1786.388550,1354.598511 
	C1789.487183,1354.950562 1792.499390,1356.063477 1795.397705,1357.490601 
	C1795.430664,1359.442993 1795.615967,1360.744751 1795.511475,1362.902344 
	C1795.221558,1368.924438 1795.221558,1374.090698 1795.221558,1380.416870 
	C1779.357178,1380.416870 1764.656616,1380.416870 1749.167725,1380.242920 
	C1746.243652,1380.209595 1744.108276,1380.350464 1741.053833,1380.308594 
	C1729.302979,1380.125977 1718.471069,1380.125977 1707.782959,1380.125977 
	C1707.270752,1375.285400 1706.890015,1371.686401 1706.823486,1367.359741 
	C1706.942139,1365.084961 1706.746216,1363.537598 1706.847534,1361.099365 
	C1707.017090,1343.509399 1706.889404,1326.810425 1707.065918,1309.213623 
	C1707.163330,1290.791504 1706.956421,1273.267334 1706.955322,1254.854248 
	C1707.161133,1248.148804 1707.161133,1242.332153 1707.161133,1235.434692 
	C1722.305786,1235.434692 1736.108398,1235.434692 1749.910889,1235.434692 
z"/>
<path fill="#232321" opacity="1.000000" stroke="none" 
	d="
M1765.539917,1467.910034 
	C1765.539917,1457.093262 1765.539917,1446.276367 1765.539917,1434.175537 
	C1777.363403,1435.452148 1788.723145,1430.749756 1799.018311,1439.815063 
	C1803.480347,1449.976807 1803.608032,1458.885864 1792.723877,1465.598633 
	C1794.550537,1469.555298 1796.303833,1473.352783 1798.506348,1477.656250 
	C1799.731689,1480.317017 1800.507935,1482.472046 1800.367676,1485.420654 
	C1797.622681,1485.176270 1795.147583,1484.570068 1794.103882,1483.007568 
	C1792.110474,1480.023193 1790.734131,1476.568359 1789.462646,1473.173584 
	C1787.546265,1468.057251 1784.065430,1465.993774 1778.724609,1466.789551 
	C1776.816650,1467.073853 1774.884766,1467.198975 1772.069946,1467.488770 
	C1772.069946,1472.650269 1772.119385,1477.559204 1772.053589,1482.466675 
	C1772.004272,1486.149780 1770.122192,1486.968994 1766.399170,1485.289307 
	C1766.120605,1479.654419 1765.830200,1473.782227 1765.539917,1467.910034 
M1772.376343,1441.726196 
	C1772.376343,1447.906982 1772.376343,1454.087646 1772.376343,1461.421509 
	C1778.334839,1461.067627 1783.599365,1461.336914 1788.592163,1460.299194 
	C1793.859497,1459.204224 1796.351562,1454.264160 1795.540283,1448.790771 
	C1794.728027,1443.311157 1792.058838,1440.519897 1786.450439,1440.164429 
	C1782.188965,1439.894409 1777.885620,1440.281860 1772.376343,1441.726196 
z"/>
<path fill="#030303" opacity="1.000000" stroke="none" 
	d="
M923.105957,462.334564 
	C940.996216,462.281250 957.974426,462.405853 974.949768,462.698914 
	C977.922729,462.750214 982.070801,461.137146 982.595337,467.973267 
	C982.258118,474.061127 977.667847,471.546478 975.029541,473.430023 
	C966.336060,475.223022 964.208984,481.645660 963.865906,488.369537 
	C963.330017,498.871460 963.783691,509.423920 963.579834,520.869141 
	C963.517273,538.531372 963.692993,555.279541 963.630249,572.482788 
	C963.501953,573.262451 963.612061,573.586853 963.453125,574.639832 
	C963.370972,581.609436 963.557800,587.850464 963.546997,594.719238 
	C963.481445,596.204285 963.613586,597.061523 963.480957,598.660278 
	C963.399170,606.295837 963.582153,613.189880 963.573486,620.731079 
	C963.555786,622.245544 963.729675,623.112915 963.684448,624.896606 
	C963.612183,642.548218 963.759094,659.283569 963.657593,676.841858 
	C963.533691,681.086914 963.658142,684.508972 963.525452,688.701477 
	C963.438843,700.340820 963.609375,711.209717 963.581116,722.807983 
	C963.558167,725.018677 963.733948,726.500122 963.681763,728.895996 
	C963.573853,746.529602 963.693909,763.248718 963.530884,780.715271 
	C963.407043,798.997009 963.566284,816.531311 963.558594,834.986084 
	C963.541260,851.928650 963.690796,867.950806 963.619019,884.582764 
	C964.310425,886.754761 965.126648,889.600037 966.150940,889.676941 
	C974.497986,890.304504 982.895325,890.635132 991.812317,889.790222 
	C991.408691,885.002563 991.109619,881.455566 991.042236,877.005371 
	C991.029480,861.338989 990.785095,846.575867 990.798828,830.923340 
	C990.911804,813.424011 990.766541,796.814026 990.971924,779.315430 
	C991.846191,761.543030 992.369873,744.659180 993.239014,727.036255 
	C996.423584,708.272705 1003.454102,691.826233 1013.061279,675.833984 
	C1019.294678,668.470459 1024.938232,661.400696 1031.172363,654.041626 
	C1043.578857,642.181885 1057.311646,633.409912 1072.710938,626.176270 
	C1075.631836,625.172363 1077.915649,624.132385 1080.995605,622.942017 
	C1097.364502,617.347839 1113.510254,615.526123 1130.784180,615.425171 
	C1169.453491,616.030579 1201.343262,630.076965 1228.075317,656.667542 
	C1222.400146,663.295105 1217.029053,669.567383 1211.058105,676.114258 
	C1204.190674,683.026794 1197.924438,689.666077 1191.654907,696.302307 
	C1189.626709,698.449097 1187.695068,700.859619 1184.415039,698.468750 
	C1181.918945,690.451721 1179.195557,683.161560 1176.416992,675.122070 
	C1171.311523,660.891418 1165.080078,648.021851 1155.478638,637.150208 
	C1149.722290,630.632507 1143.516968,624.474915 1133.538574,625.594482 
	C1132.436646,625.718079 1131.206299,624.696167 1129.252197,623.983521 
	C1116.649780,623.652161 1109.219849,630.262939 1104.869873,640.335327 
	C1099.993530,651.627014 1097.316528,663.543152 1097.774414,676.818237 
	C1097.470703,694.339294 1097.424072,711.048706 1097.044800,728.657043 
	C1096.938843,746.462524 1097.165649,763.369080 1097.156250,781.164856 
	C1097.043579,798.624695 1097.166992,815.195312 1096.964355,832.666504 
	C1096.875366,850.433899 1097.112183,867.300781 1097.130615,884.956787 
	C1096.409668,889.357971 1098.383179,890.202332 1101.524780,890.127747 
	C1110.996948,889.902954 1120.471802,889.798828 1130.866455,889.852417 
	C1146.331909,890.120850 1160.876465,890.184509 1175.531494,891.105469 
	C1175.641846,894.459106 1175.641846,896.955444 1175.641846,900.600220 
	C1159.683716,900.600220 1144.778931,900.600220 1128.958374,900.445129 
	C1117.889404,900.290039 1107.736084,900.290039 1097.464966,900.290039 
	C1097.464966,913.068420 1097.464966,924.605774 1097.169678,936.513916 
	C1096.874512,936.884705 1097.240356,937.759277 1096.975586,938.544922 
	C1096.959229,956.312378 1097.207520,973.294250 1097.237061,991.168518 
	C1096.980347,995.988953 1096.835693,999.919312 1096.924194,1003.844543 
	C1097.210815,1016.570740 1097.583008,1029.295044 1097.752930,1042.786865 
	C1098.043335,1051.610229 1102.403320,1056.389038 1110.164307,1057.901367 
	C1115.360962,1058.914185 1115.216064,1061.779907 1113.580933,1066.725708 
	C1102.273071,1066.725708 1091.079468,1066.725708 1078.974854,1066.526611 
	C1061.410767,1066.440430 1044.757690,1066.553345 1027.181519,1066.458496 
	C1012.179199,1066.384888 998.100098,1066.518799 983.219116,1066.459473 
	C980.234192,1066.411865 978.051086,1066.557373 975.126526,1066.447754 
	C970.387817,1062.041748 970.711609,1060.113892 976.571289,1057.507080 
	C986.592407,1055.384521 990.796753,1049.425659 990.449951,1039.046631 
	C990.628174,1022.131165 990.550110,1006.120300 990.823120,989.364441 
	C990.930115,971.136719 990.686096,953.653992 990.638672,935.240601 
	C990.835327,923.197449 990.835327,912.084961 990.835327,900.593201 
	C985.172546,900.593201 980.638184,900.593201 975.184570,900.366577 
	C957.474976,900.307678 940.684570,900.475342 922.977539,900.472778 
	C905.410278,900.426819 888.759644,900.551147 871.194580,900.446777 
	C860.853210,900.274109 851.426208,900.330078 841.444092,899.894043 
	C839.296448,894.447693 840.037476,890.745728 846.585938,889.974487 
	C848.243835,889.740479 849.329224,889.385132 851.007812,889.006897 
	C852.474731,888.263062 853.348389,887.542053 854.944824,886.391724 
	C856.528015,883.181091 858.131775,880.400757 858.135681,877.618225 
	C858.181335,845.087646 857.986389,812.556702 858.081116,779.110718 
	C858.151245,761.453979 857.995178,744.712402 858.026123,727.051880 
	C858.100769,709.429932 857.988403,692.726990 858.103516,675.109375 
	C858.165466,657.452637 857.999878,640.710571 858.019836,623.049377 
	C858.081421,605.430603 857.957520,588.731018 858.049561,571.113892 
	C858.095764,553.450134 857.926025,536.703918 857.947876,519.040894 
	C858.135437,508.131989 858.402710,498.130432 858.053650,488.150482 
	C857.680786,477.488342 855.450256,474.941406 845.000793,472.748138 
	C841.983521,472.114868 840.015625,471.322083 839.896667,468.017670 
	C840.249878,466.453613 840.603027,464.889526 841.129211,462.559082 
	C851.450500,462.559082 861.804443,462.559082 873.068420,462.332642 
	C890.049988,462.260742 906.121460,462.415222 923.105957,462.334564 
z"/>
<path fill="#030303" opacity="1.000000" stroke="none" 
	d="
M1622.879883,1371.035889 
	C1622.656006,1374.202026 1622.269653,1376.446411 1621.644531,1380.077271 
	C1613.850952,1380.077271 1605.791016,1380.077271 1595.949097,1380.123535 
	C1593.207886,1378.750244 1591.586792,1377.406738 1591.413330,1375.896851 
	C1590.894043,1371.377319 1590.941040,1366.792603 1591.065186,1361.323975 
	C1591.193481,1342.887817 1591.023560,1325.361206 1591.036499,1306.924683 
	C1590.988159,1289.392700 1590.756836,1272.770386 1590.858398,1255.287354 
	C1591.259033,1249.794678 1591.477905,1245.158447 1591.344482,1240.532349 
	C1591.244385,1237.062866 1593.191040,1235.957153 1597.000732,1235.716064 
	C1613.921265,1235.782959 1629.924072,1235.678467 1645.926758,1235.573975 
	C1649.486694,1236.181274 1653.069458,1236.679688 1656.602539,1237.415771 
	C1668.811157,1239.959595 1677.304932,1247.023315 1682.675781,1259.871704 
	C1688.519287,1277.475952 1686.415405,1292.902100 1677.029053,1307.822021 
	C1673.080566,1311.276733 1669.776978,1314.429321 1666.286377,1317.760132 
	C1672.517334,1332.721069 1678.646484,1347.437378 1684.775635,1362.153687 
	C1686.817139,1367.693848 1688.858521,1373.233887 1691.182251,1379.540161 
	C1679.616699,1379.540161 1668.835693,1379.540161 1657.588501,1379.540161 
	C1653.874146,1370.504639 1649.562012,1361.390015 1646.384399,1351.895630 
	C1643.259033,1342.557495 1641.284546,1332.834229 1638.796143,1323.244873 
	C1633.100220,1323.244873 1628.548340,1323.244873 1622.717285,1323.244873 
	C1622.717285,1339.094971 1622.717285,1354.604492 1622.879883,1371.035889 
M1649.924927,1293.736694 
	C1657.152466,1282.769043 1656.684570,1272.542969 1647.676392,1262.313110 
	C1639.934937,1257.794922 1631.696167,1259.804077 1623.016479,1259.994995 
	C1623.016479,1272.901855 1623.016479,1285.329346 1623.016479,1298.517212 
	C1632.110107,1298.090210 1641.145386,1301.738892 1649.924927,1293.736694 
z"/>
<path fill="#060606" opacity="1.000000" stroke="none" 
	d="
M258.228882,1362.879639 
	C258.141388,1345.279541 258.275818,1328.557983 258.217651,1310.915771 
	C258.182739,1292.611206 258.340424,1275.226929 258.287994,1256.926270 
	C258.251068,1250.029785 258.424255,1244.049561 258.602234,1237.178467 
	C268.789124,1236.287598 278.971252,1236.287598 290.375916,1236.287598 
	C290.375916,1242.400757 290.375916,1248.239136 290.328033,1255.898438 
	C290.409637,1275.178223 290.539154,1292.637085 290.492249,1311.011841 
	C290.315857,1325.381226 290.315857,1338.834717 290.315857,1352.811890 
	C295.499512,1352.811890 299.681854,1352.811890 304.762878,1353.114868 
	C316.200500,1353.536865 326.739471,1353.655762 337.041962,1353.771973 
	C337.464691,1357.389038 337.734192,1359.694946 337.786774,1362.884277 
	C337.569855,1368.946899 337.569855,1374.125977 337.569855,1380.484863 
	C326.355133,1380.484863 316.218048,1380.484863 306.080933,1380.484863 
	C290.646912,1380.484863 275.212891,1380.484863 258.450836,1380.484863 
	C258.450836,1374.097900 258.450836,1368.928101 258.228882,1362.879639 
z"/>
<path fill="#232321" opacity="1.000000" stroke="none" 
	d="
M271.868958,1467.102295 
	C273.400238,1478.845093 276.840698,1482.045044 287.316467,1481.687012 
	C291.193634,1481.554565 295.054718,1480.951660 300.478699,1480.407104 
	C299.054840,1483.041870 298.611450,1485.226562 297.478058,1485.677490 
	C295.068756,1486.636353 292.310822,1486.773926 289.678009,1487.107666 
	C275.081146,1488.958008 268.195190,1483.945068 264.730438,1468.688599 
	C264.805786,1461.484863 264.836426,1454.819458 265.865906,1448.312012 
	C267.419769,1438.490234 272.840149,1433.976196 282.855408,1433.674805 
	C287.131378,1433.546143 291.485504,1433.898926 295.692932,1434.652954 
	C297.364868,1434.952759 298.735687,1436.932861 300.243622,1438.147827 
	C299.962067,1438.925171 299.680481,1439.702515 299.398926,1440.479858 
	C295.658691,1440.183105 291.922791,1439.805786 288.177399,1439.605103 
	C277.085846,1439.010864 272.796967,1442.501587 271.759827,1453.340698 
	C271.351685,1457.606201 271.619843,1461.936401 271.868958,1467.102295 
z"/>
<path fill="#232321" opacity="1.000000" stroke="none" 
	d="
M1718.455811,1467.283081 
	C1718.637817,1471.728394 1718.637817,1475.360840 1718.637817,1480.243408 
	C1723.416016,1480.392334 1728.276855,1480.266479 1733.069092,1480.780396 
	C1736.937866,1481.195312 1742.223145,1478.424316 1745.541382,1486.202881 
	C1733.621460,1486.662354 1723.240356,1486.482300 1712.075439,1486.292358 
	C1712.075439,1480.391235 1712.075439,1475.104248 1711.919189,1468.935547 
	C1711.763062,1457.154297 1711.763062,1446.254883 1711.763062,1434.475342 
	C1723.124023,1434.533691 1733.239380,1432.918335 1743.310913,1435.496216 
	C1743.721924,1435.601318 1743.733398,1437.267822 1744.172241,1439.353760 
	C1735.781860,1439.353760 1727.739990,1439.353760 1718.869385,1439.353760 
	C1718.869385,1445.502319 1718.869385,1450.566040 1718.869385,1456.768555 
	C1725.619873,1456.768555 1732.451172,1456.768555 1741.237915,1456.768555 
	C1739.235107,1459.719116 1738.459595,1462.013794 1737.486694,1462.100830 
	C1732.530518,1462.544067 1727.523560,1462.466309 1722.534302,1462.469116 
	C1719.773071,1462.470703 1718.037842,1463.370850 1718.455811,1467.283081 
z"/>
<path fill="#232321" opacity="1.000000" stroke="none" 
	d="
M1677.106445,1466.895264 
	C1677.054932,1473.594849 1676.724731,1479.409912 1676.387939,1485.338379 
	C1673.116943,1486.806641 1670.565796,1487.047974 1670.448364,1482.466553 
	C1670.339844,1478.235474 1670.397461,1474.000122 1670.217407,1468.876221 
	C1670.052856,1459.076660 1670.052856,1450.167480 1670.052856,1440.630737 
	C1665.064575,1440.250366 1660.255981,1439.883545 1652.934692,1439.325195 
	C1655.800415,1436.669678 1657.078369,1434.446777 1658.420654,1434.407227 
	C1668.405762,1434.113159 1678.407471,1434.117920 1688.393433,1434.401123 
	C1689.884155,1434.443359 1691.319702,1436.430786 1692.780762,1437.518433 
	C1692.510010,1438.222900 1692.239380,1438.927368 1691.968750,1439.631836 
	C1687.476562,1439.881958 1682.984375,1440.131958 1677.888916,1440.415649 
	C1675.677979,1448.951050 1677.185425,1457.542603 1677.106445,1466.895264 
z"/>
<path fill="#060606" opacity="1.000000" stroke="none" 
	d="
M359.952209,1365.539551 
	C359.654449,1364.671387 359.356689,1363.803223 358.547180,1362.463501 
	C351.692200,1345.766479 351.930817,1328.765747 352.055786,1309.933838 
	C351.889648,1290.750610 351.787170,1273.404541 351.684692,1256.058350 
	C351.859344,1250.607910 352.127167,1245.158325 352.171936,1239.706909 
	C352.196777,1236.685059 353.816681,1235.868408 358.157532,1235.910522 
	C367.684448,1235.860718 375.466888,1235.860718 384.212250,1235.860718 
	C384.212250,1243.526978 384.212250,1249.742798 384.003632,1256.878296 
	C383.920105,1275.209106 384.045197,1292.620117 383.993713,1310.948486 
	C383.889862,1320.182983 383.438568,1328.545288 384.148132,1336.807739 
	C385.477753,1352.289917 392.463501,1357.618286 408.720306,1356.016235 
	C418.795227,1353.514526 421.412018,1346.055420 421.811340,1337.759888 
	C422.256775,1328.505859 421.735626,1319.205322 421.807312,1309.006470 
	C421.867340,1290.746948 421.755249,1273.406006 421.862610,1255.178955 
	C422.082031,1248.328125 422.082031,1242.363403 422.082031,1236.622437 
	C424.845123,1236.143921 426.418579,1235.871338 428.898010,1235.781250 
	C436.266663,1235.963867 442.729370,1235.963867 450.077423,1235.963867 
	C450.077423,1244.266968 450.077423,1251.141846 449.926392,1258.942139 
	C449.889496,1276.570190 450.003662,1293.272583 449.905579,1310.888184 
	C449.946045,1328.776978 450.026398,1345.733765 443.800049,1362.579956 
	C439.031128,1370.337646 433.072113,1375.878174 425.128204,1378.687012 
	C419.643463,1380.626465 413.805359,1381.566772 407.215668,1382.760986 
	C388.417633,1383.526489 372.234467,1379.842285 359.952209,1365.539551 
z"/>
<path fill="#232321" opacity="1.000000" stroke="none" 
	d="
M352.876160,1437.909424 
	C357.103394,1444.436279 358.487640,1451.047607 355.900543,1458.851074 
	C353.213440,1461.566528 350.658417,1463.554077 347.880249,1465.715332 
	C350.775909,1472.212158 353.584015,1478.512573 356.222778,1485.576660 
	C352.899078,1486.589600 350.073090,1486.346191 348.828186,1482.665527 
	C348.194275,1480.791260 347.147461,1479.058472 346.313782,1477.249634 
	C341.184448,1466.121338 341.186951,1466.120239 327.734558,1467.881592 
	C327.734558,1473.607178 327.734558,1479.469482 327.734558,1485.849121 
	C325.111115,1485.849121 323.322296,1485.849121 320.638794,1485.849121 
	C320.638794,1480.233276 320.638794,1474.968384 320.438293,1468.816528 
	C320.237762,1457.118896 320.237762,1446.308105 320.237762,1434.217041 
	C331.944580,1435.026245 342.404449,1431.459229 352.876160,1437.909424 
M347.414703,1458.354614 
	C351.517273,1453.764282 351.932983,1448.333008 348.342712,1443.875244 
	C342.873871,1437.084961 335.167694,1440.555542 328.126221,1440.424438 
	C328.126221,1447.540894 328.126221,1453.968506 328.126221,1461.863281 
	C334.639435,1460.971191 340.373993,1460.185791 347.414703,1458.354614 
z"/>
<path fill="#232321" opacity="1.000000" stroke="none" 
	d="
M407.977264,1480.090820 
	C411.481171,1481.473633 413.952026,1483.097290 408.761536,1486.549438 
	C398.938477,1486.748657 389.790924,1486.748657 379.627502,1486.748657 
	C379.627502,1480.133179 379.627502,1474.933838 379.440063,1468.822998 
	C379.252625,1457.032593 379.252625,1446.153564 379.252625,1434.117188 
	C389.055725,1434.117188 397.589539,1434.117188 407.041626,1433.963867 
	C411.879761,1435.184448 413.317871,1437.056885 407.655640,1440.115479 
	C399.586151,1440.188110 393.072601,1440.188110 386.722260,1440.188110 
	C386.722260,1446.468628 386.722260,1451.563721 386.722260,1457.322876 
	C393.663757,1457.322876 399.921204,1457.322876 406.178589,1457.322876 
	C406.377838,1458.492432 406.577087,1459.661865 405.560181,1461.723389 
	C398.505676,1462.615356 392.667358,1462.615356 386.310394,1462.615356 
	C386.310394,1464.831421 386.310394,1466.395752 386.145996,1468.860474 
	C385.981598,1473.259155 385.981598,1476.757446 385.981598,1480.090820 
	C394.198242,1480.090820 401.087738,1480.090820 407.977264,1480.090820 
z"/>
<path fill="#232321" opacity="1.000000" stroke="none" 
	d="
M1604.086426,1468.678711 
	C1603.955444,1462.655029 1603.765137,1457.313965 1604.262939,1452.037598 
	C1605.799927,1435.746704 1622.769531,1427.205444 1636.812134,1435.642822 
	C1637.733521,1436.196533 1637.709595,1438.323608 1638.373779,1440.552490 
	C1634.239258,1440.212891 1631.005005,1439.889282 1627.763062,1439.691284 
	C1616.121826,1438.980225 1612.006714,1442.284790 1610.688110,1453.938354 
	C1610.205688,1458.202759 1610.549805,1462.560669 1610.822388,1467.582764 
	C1613.188232,1479.365723 1616.890015,1482.405273 1627.688232,1481.651123 
	C1630.899536,1481.426880 1634.085571,1480.841309 1637.104370,1480.444702 
	C1639.076050,1483.391968 1638.686401,1485.222656 1635.669067,1485.997803 
	C1633.432861,1486.572388 1631.136597,1486.969482 1628.843262,1487.255981 
	C1617.181152,1488.713745 1606.240234,1485.278687 1604.086426,1468.678711 
z"/>
<path fill="#030303" opacity="1.000000" stroke="none" 
	d="
M1566.786743,1255.028198 
	C1566.638794,1272.035767 1566.490845,1289.043213 1566.483521,1306.971802 
	C1566.401489,1317.146118 1566.686157,1326.448120 1565.804565,1335.638184 
	C1565.021851,1343.796509 1562.944458,1351.830566 1561.314453,1360.717407 
	C1557.201660,1368.215210 1552.011353,1373.710938 1543.836182,1378.032959 
	C1525.639404,1384.439697 1508.779785,1383.724854 1491.395508,1377.905151 
	C1483.908936,1373.794556 1479.087646,1367.959717 1474.692383,1360.781250 
	C1470.594604,1350.988525 1469.763916,1341.442993 1469.655762,1331.750244 
	C1469.574341,1324.459229 1469.315552,1317.170288 1469.306152,1308.964966 
	C1469.346802,1291.414917 1469.217041,1274.780273 1469.341064,1257.399170 
	C1469.468506,1255.092896 1469.342407,1253.532837 1469.410645,1251.106445 
	C1469.765869,1245.505005 1469.926636,1240.770264 1471.000977,1236.002563 
	C1478.645630,1235.794678 1485.376831,1235.619507 1492.989258,1235.622314 
	C1496.004761,1236.081299 1498.138916,1236.362183 1501.121704,1236.754761 
	C1501.121704,1243.458618 1501.121704,1249.620605 1500.811035,1256.687500 
	C1500.660645,1275.112549 1500.820679,1292.632568 1500.807129,1311.054443 
	C1501.053833,1321.874390 1500.735596,1331.895142 1502.092651,1341.683472 
	C1503.588379,1352.472412 1509.855835,1356.733521 1520.924194,1356.513550 
	C1531.157349,1356.310181 1536.753540,1351.819702 1537.883667,1340.880859 
	C1538.932617,1330.727783 1538.511841,1320.422607 1539.038452,1309.280762 
	C1539.115356,1290.829346 1538.891724,1273.281616 1538.891357,1254.872192 
	C1539.137329,1249.746948 1538.887207,1245.456421 1539.304565,1241.231812 
	C1539.496582,1239.287231 1540.996094,1237.471924 1542.697876,1235.812988 
	C1545.672363,1235.871704 1547.851685,1235.715454 1550.031128,1235.559082 
	C1554.986938,1235.778564 1559.942749,1235.998047 1566.309326,1236.280029 
	C1566.309326,1241.157593 1566.309326,1245.978027 1566.325439,1252.089355 
	C1566.219360,1254.002686 1566.367798,1254.552002 1566.786743,1255.028198 
z"/>
<path fill="#232321" opacity="1.000000" stroke="none" 
	d="
M456.384491,1435.716064 
	C459.944702,1446.633911 462.975739,1457.059204 466.324890,1468.949707 
	C467.993347,1475.307251 469.343719,1480.199829 470.653229,1484.944458 
	C465.734863,1487.938843 464.397949,1484.899658 463.094116,1481.794922 
	C462.381531,1479.315430 461.668945,1476.835938 460.801697,1473.818359 
	C453.532562,1473.818359 446.502197,1473.818359 439.926971,1473.818359 
	C435.647217,1477.435547 439.114410,1486.721069 429.190094,1486.114746 
	C430.367737,1481.065308 431.388031,1476.690674 432.508362,1471.572510 
	C436.367523,1458.825317 440.126617,1446.821533 444.146210,1433.986084 
	C448.189941,1434.413574 452.022644,1434.818604 456.384491,1435.716064 
M447.170746,1467.656982 
	C450.726929,1467.656982 454.283112,1467.656982 459.032257,1467.656982 
	C456.454437,1457.472412 454.765045,1448.330688 449.776947,1438.130859 
	C445.328430,1448.114746 442.871613,1456.758179 441.623627,1465.742554 
	C441.560883,1466.194458 444.062073,1467.002319 447.170746,1467.656982 
z"/>
<path fill="#232321" opacity="1.000000" stroke="none" 
	d="
M1544.934326,1485.717163 
	C1546.736694,1476.928833 1549.323853,1468.414795 1551.832153,1459.877686 
	C1554.244751,1451.666992 1556.575806,1443.432373 1559.069702,1434.766602 
	C1563.191895,1434.766602 1567.018433,1434.766602 1571.376343,1434.766602 
	C1574.672241,1445.439575 1577.968384,1456.113159 1581.708740,1467.408691 
	C1583.395996,1473.799316 1584.638916,1479.568115 1585.991455,1485.845581 
	C1576.371338,1487.125000 1579.789062,1477.559448 1575.388672,1473.803833 
	C1569.180908,1473.803833 1562.329102,1473.803833 1554.477173,1473.803833 
	C1553.593994,1476.486450 1552.541626,1479.510010 1551.607300,1482.569702 
	C1550.680054,1485.606079 1548.917725,1487.028564 1544.934326,1485.717163 
M1572.498779,1458.757080 
	C1570.375000,1452.419189 1569.887573,1445.431152 1564.398560,1438.178589 
	C1561.279419,1448.763550 1558.636841,1457.731323 1555.808350,1467.330078 
	C1562.494751,1467.330078 1568.053467,1467.330078 1574.203735,1467.330078 
	C1573.776123,1464.722900 1573.416016,1462.527588 1572.498779,1458.757080 
z"/>
<path fill="#232321" opacity="1.000000" stroke="none" 
	d="
M1492.021973,1434.117065 
	C1497.681763,1434.120483 1503.341553,1434.133911 1509.001343,1434.124756 
	C1516.037476,1434.113403 1522.755127,1435.425781 1525.447632,1442.809326 
	C1528.217285,1450.404541 1527.839722,1457.899780 1520.997070,1463.770020 
	C1520.043335,1464.588501 1519.404663,1465.774170 1519.106689,1467.455566 
	C1521.936890,1473.785156 1524.280396,1479.449097 1527.411255,1487.015503 
	C1523.793213,1485.628540 1521.367920,1485.406860 1520.191162,1484.078857 
	C1518.499634,1482.169556 1517.689697,1479.468018 1516.551636,1477.081543 
	C1511.247437,1465.958252 1511.253296,1465.955444 1497.338379,1467.254272 
	C1497.338379,1471.980713 1497.297729,1476.849731 1497.354614,1481.717529 
	C1497.385376,1484.347290 1496.759277,1486.298950 1492.775146,1486.284058 
	C1491.624634,1480.721924 1491.317261,1475.124146 1491.066162,1467.796509 
	C1491.422119,1455.416748 1491.722046,1444.766846 1492.021973,1434.117065 
M1506.516724,1440.123291 
	C1503.679199,1440.281128 1500.841675,1440.438965 1498.120850,1440.590332 
	C1498.120850,1447.583984 1498.120850,1453.734253 1498.120850,1460.582642 
	C1502.590698,1460.582642 1506.508667,1460.766846 1510.403076,1460.543335 
	C1517.845703,1460.115967 1521.043213,1456.228516 1520.302490,1448.868530 
	C1519.699707,1442.878784 1517.259888,1441.102173 1506.516724,1440.123291 
z"/>
<path fill="#232321" opacity="1.000000" stroke="none" 
	d="
M976.399719,1439.396729 
	C986.885925,1431.663696 1001.350891,1431.281860 1007.543274,1439.296387 
	C1005.348816,1439.581299 1003.592468,1440.004150 1001.837708,1439.997559 
	C997.866333,1439.983032 993.874939,1439.436523 989.929626,1439.692017 
	C984.110413,1440.068848 981.393921,1442.583252 981.059814,1447.127686 
	C980.691040,1452.142334 984.056885,1454.150024 988.038513,1455.448608 
	C991.182129,1456.473633 994.488281,1457.010620 997.611145,1458.086914 
	C1002.362976,1459.724487 1006.968811,1461.700317 1008.944092,1467.762329 
	C1009.524170,1485.542236 998.712952,1488.196289 986.593384,1487.030884 
	C983.613342,1486.744385 980.644409,1486.342041 976.853882,1485.929443 
	C975.969604,1484.293823 975.901917,1482.721802 976.771973,1480.708252 
	C982.923096,1480.718994 988.187073,1481.851562 993.338074,1481.468018 
	C1001.599731,1480.852905 1003.580322,1476.810669 1000.573486,1467.201416 
	C992.834778,1463.668091 985.544556,1460.760986 977.969788,1457.197510 
	C973.236206,1451.127808 974.476807,1445.287842 976.399719,1439.396729 
z"/>
<path fill="#232321" opacity="1.000000" stroke="none" 
	d="
M924.114868,1434.223999 
	C932.768188,1434.233154 941.421448,1434.241699 950.074707,1434.251709 
	C952.929810,1434.255127 955.649963,1434.408325 954.394897,1440.015137 
	C950.900452,1440.015137 947.067139,1440.015259 943.233826,1440.015259 
	C939.261841,1440.015259 935.289795,1440.015137 930.552856,1440.015137 
	C930.552856,1445.762085 930.552856,1451.156982 930.552856,1456.847168 
	C937.521118,1457.216064 944.237244,1457.571655 950.953430,1457.927124 
	C951.066772,1458.661743 951.180115,1459.396484 951.293457,1460.131104 
	C949.844177,1460.942139 948.439209,1462.339844 946.937317,1462.453247 
	C942.634644,1462.777588 938.289368,1462.687744 933.967346,1462.552856 
	C931.034302,1462.461182 929.551392,1463.527710 929.986755,1467.304688 
	C930.177490,1471.911255 930.177490,1475.780762 930.177490,1479.467285 
	C938.478943,1483.120361 947.495056,1477.439331 955.123474,1482.694092 
	C955.449097,1482.918091 955.238892,1483.919800 955.363953,1485.951416 
	C950.618958,1486.099243 945.885620,1486.303101 941.150208,1486.378052 
	C936.535645,1486.451172 931.919067,1486.392334 926.340820,1486.522583 
	C924.731445,1480.962524 924.084656,1475.271240 923.395691,1467.810059 
	C923.607300,1455.434692 923.861084,1444.829346 924.114868,1434.223999 
z"/>
<path fill="#232321" opacity="1.000000" stroke="none" 
	d="
M874.442017,1470.073853 
	C878.831238,1458.370239 883.220459,1446.666626 887.751831,1434.584229 
	C890.982910,1434.584229 894.187988,1434.584229 898.842834,1434.584229 
	C898.842834,1445.094971 898.842834,1455.588745 898.937988,1467.009644 
	C898.770691,1473.774780 898.508179,1479.612671 898.162598,1487.295898 
	C895.437378,1485.540649 893.010986,1484.846069 892.596130,1483.521484 
	C891.840271,1481.107910 892.277405,1478.320679 892.170044,1473.911621 
	C892.123230,1462.841919 892.123230,1453.549927 892.123230,1444.258057 
	C891.510986,1444.179932 890.898743,1444.101807 890.286499,1444.023682 
	C887.168396,1453.278564 884.050293,1462.533447 880.932129,1471.788330 
	C877.959900,1475.540283 879.572754,1481.893311 873.392700,1484.349243 
	C871.221130,1482.815796 869.158020,1481.296509 868.054382,1479.257812 
	C866.386047,1476.176147 865.386414,1472.732544 863.763550,1468.046875 
	C860.289673,1459.513672 859.119019,1451.505737 854.158691,1443.379639 
	C854.158691,1452.860962 854.158691,1460.448120 854.158691,1468.035278 
	C854.066589,1472.652588 853.871216,1477.270996 853.916382,1481.886963 
	C853.950012,1485.321777 852.526855,1486.763916 847.676758,1485.843018 
	C847.631287,1480.751831 847.582764,1475.326416 847.382935,1468.997070 
	C847.231567,1457.266479 847.231567,1446.439941 847.231567,1434.792236 
	C851.128052,1434.537842 854.208618,1434.336670 857.784485,1434.103271 
	C861.429382,1444.060059 864.922729,1453.603027 868.949707,1463.611084 
	C869.911743,1465.789307 870.340149,1467.502197 871.240234,1470.349121 
	C872.203308,1472.208862 872.694763,1472.934692 873.186157,1473.660522 
	C873.604797,1472.464966 874.023438,1471.269409 874.442017,1470.073853 
z"/>
<path fill="#232321" opacity="1.000000" stroke="none" 
	d="
M819.651611,1438.213867 
	C825.136658,1446.796753 826.251343,1456.322388 825.799011,1467.091553 
	C823.786133,1472.763550 821.665283,1477.553223 819.228760,1482.994141 
	C814.851624,1484.852417 810.848083,1486.812012 806.718140,1487.130249 
	C792.466858,1488.228516 785.668518,1481.346680 783.763184,1467.740723 
	C783.619080,1462.155273 783.381409,1458.185425 783.668091,1454.253906 
	C784.830994,1438.304810 795.292847,1430.473389 810.764038,1434.129761 
	C813.874512,1434.864746 816.696594,1436.820801 819.651611,1438.213867 
M818.881348,1466.712402 
	C818.616882,1461.152832 818.938721,1455.486572 817.949707,1450.058960 
	C816.482422,1442.005981 811.268860,1438.769043 802.803894,1439.538208 
	C795.878113,1440.167358 790.499695,1445.208862 790.131714,1452.156982 
	C789.855042,1457.381104 790.369812,1462.647095 790.355347,1469.345581 
	C794.007202,1479.275879 798.099976,1482.493164 806.255432,1481.844360 
	C813.790833,1481.244873 816.922913,1477.636841 818.881348,1466.712402 
z"/>
<path fill="#232321" opacity="1.000000" stroke="none" 
	d="
M1433.453369,1468.673584 
	C1436.513306,1457.242676 1439.566895,1446.571655 1443.627563,1435.092285 
	C1448.236328,1434.283813 1451.837891,1434.283813 1455.495483,1434.283813 
	C1459.234253,1445.980347 1462.763916,1457.022827 1466.293579,1468.065308 
	C1467.591064,1473.779419 1468.888550,1479.493408 1470.196289,1485.252686 
	C1464.416382,1485.663818 1464.416382,1485.663818 1459.787720,1473.286621 
	C1454.764282,1473.286621 1449.235596,1473.286621 1442.809814,1473.487305 
	C1436.246826,1473.285889 1437.263916,1478.288696 1436.433350,1481.163208 
	C1435.340698,1484.945190 1434.048218,1486.951172 1428.994019,1485.415649 
	C1430.536377,1479.880249 1431.991821,1474.656860 1433.453369,1468.673584 
M1451.017334,1467.599243 
	C1453.258423,1467.417847 1455.499390,1467.236328 1458.636963,1466.982300 
	C1456.177246,1457.426270 1454.661255,1448.244751 1448.384766,1439.909668 
	C1445.751953,1448.837402 1443.119141,1457.765015 1440.222046,1467.588501 
	C1444.084473,1467.588501 1446.709351,1467.588501 1451.017334,1467.599243 
z"/>
<path fill="#232321" opacity="1.000000" stroke="none" 
	d="
M1387.907349,1456.292847 
	C1392.132812,1456.564697 1396.358276,1456.836548 1401.952881,1457.196411 
	C1401.952881,1450.675659 1402.002808,1444.878540 1401.935059,1439.082886 
	C1401.891479,1435.349487 1403.146851,1433.391235 1408.398315,1435.077881 
	C1408.398315,1444.487305 1408.398315,1454.280273 1408.533447,1464.993774 
	C1408.668457,1472.425537 1408.668457,1478.936768 1408.668457,1485.461670 
	C1404.582275,1486.498535 1402.286987,1486.383423 1402.154541,1482.611206 
	C1402.004150,1478.332886 1402.048584,1474.047974 1402.016235,1468.056396 
	C1402.347534,1463.226685 1400.699463,1462.358032 1397.865356,1462.397095 
	C1390.937744,1462.492676 1384.008057,1462.428345 1376.455200,1462.428345 
	C1376.455200,1464.889648 1376.455200,1466.467773 1376.455200,1468.046021 
	C1376.338745,1473.003662 1376.308838,1477.965332 1376.078369,1482.917603 
	C1375.894897,1486.859619 1373.472168,1486.675659 1369.770142,1485.427002 
	C1369.770142,1480.354492 1369.770142,1475.133789 1369.807495,1468.083984 
	C1369.844849,1455.705078 1369.844849,1445.155518 1369.844849,1435.028442 
	C1374.829590,1433.684326 1375.956055,1435.512817 1375.928345,1438.813599 
	C1375.879028,1444.679932 1375.914551,1450.546753 1375.914551,1457.181152 
	C1380.763672,1456.822021 1384.335449,1456.557373 1387.907349,1456.292847 
z"/>
<path fill="#232321" opacity="1.000000" stroke="none" 
	d="
M1337.871582,1433.291992 
	C1341.267090,1435.196777 1347.287109,1432.697388 1348.252319,1439.854736 
	C1345.170776,1439.854736 1342.433594,1439.854736 1338.033691,1439.752441 
	C1324.945923,1440.026001 1321.535767,1442.845581 1320.611084,1453.811401 
	C1320.203003,1458.651611 1320.931885,1463.587769 1321.065674,1469.247070 
	C1324.310547,1480.691650 1326.150146,1481.910156 1338.035034,1481.306396 
	C1341.182617,1481.009033 1344.330200,1480.711792 1347.907104,1480.374023 
	C1347.907104,1482.235840 1347.907104,1483.739258 1347.907104,1485.471558 
	C1344.988770,1486.150879 1342.171631,1486.806641 1338.683105,1487.756714 
	C1337.371460,1487.943604 1336.734863,1487.782104 1336.090210,1487.736572 
	C1321.003662,1486.669189 1317.960815,1484.137085 1313.912598,1467.742188 
	C1313.938477,1460.467285 1313.543701,1454.739990 1314.410156,1449.210327 
	C1316.031860,1438.859863 1321.447754,1434.349731 1331.903931,1433.540161 
	C1333.887573,1433.386597 1335.882080,1433.371216 1337.871582,1433.291992 
z"/>
<path fill="#060606" opacity="1.000000" stroke="none" 
	d="
M902.448486,1361.913818 
	C902.191711,1367.437866 901.934998,1372.961914 901.620544,1379.728149 
	C892.422729,1379.826904 883.104797,1379.927002 872.229126,1379.621216 
	C870.398132,1373.486572 870.124756,1367.757812 870.068359,1361.111694 
	C870.137085,1343.452393 869.988892,1326.710449 870.030151,1309.049805 
	C870.101868,1290.763428 869.984131,1273.395508 869.866455,1256.027710 
	C870.031433,1251.259521 870.014038,1246.474731 870.449951,1241.731445 
	C870.627197,1239.802856 871.789429,1237.964722 873.289185,1235.784302 
	C890.078064,1235.590088 906.081299,1235.697144 923.004272,1235.640869 
	C928.687622,1235.634399 933.451233,1235.791382 939.938660,1235.980713 
	C945.117493,1235.877075 948.572571,1235.741089 952.027588,1235.605103 
	C952.843994,1237.916260 954.097473,1240.175903 954.378052,1242.550415 
	C954.841614,1246.474121 954.677551,1250.472046 954.865967,1256.129761 
	C954.819519,1261.503174 952.310425,1261.638184 949.497131,1261.660400 
	C941.002747,1261.728027 932.509277,1261.922363 923.112671,1261.826660 
	C915.684082,1261.586304 909.158264,1261.586304 902.693359,1261.586304 
	C902.693359,1274.261597 902.693359,1285.709717 902.693359,1297.329956 
	C910.956848,1297.329956 918.540894,1297.329956 927.011475,1297.489380 
	C933.043823,1297.747681 938.189636,1297.846558 943.297424,1297.944702 
	C943.652100,1302.790649 943.914734,1306.379272 943.970947,1310.833740 
	C943.669434,1315.113770 943.574402,1318.527832 943.478821,1321.961426 
	C936.126038,1322.375122 930.006592,1322.719360 922.999634,1322.854248 
	C915.573486,1322.644653 909.034790,1322.644653 902.448486,1322.644653 
	C902.448486,1336.645752 902.448486,1349.279785 902.448486,1361.913818 
z"/>
<path fill="#060606" opacity="1.000000" stroke="none" 
	d="
M964.859436,1256.120850 
	C965.051636,1252.666748 965.243835,1249.212769 965.463745,1244.233643 
	C965.347046,1241.787476 965.202576,1240.866455 965.058105,1239.945312 
	C966.160217,1233.855347 971.085449,1236.716431 976.175964,1235.886963 
	C984.034424,1235.841553 990.170776,1235.841553 997.031921,1235.841553 
	C997.031921,1243.366211 997.031921,1249.597046 996.763123,1256.741455 
	C996.710388,1275.147705 996.926453,1292.640503 996.934875,1311.029541 
	C996.976013,1320.810913 996.568054,1329.774048 997.612976,1338.564331 
	C999.667847,1355.849731 1013.093689,1361.754395 1029.000122,1352.303467 
	C1035.395874,1344.923340 1035.878540,1336.568115 1035.636475,1327.109375 
	C1035.683228,1320.781738 1035.550659,1315.339966 1035.595581,1308.982422 
	C1035.660889,1290.741333 1035.548584,1273.415894 1035.650879,1255.187988 
	C1035.865234,1248.466919 1035.865234,1242.648438 1035.865234,1236.735474 
	C1045.491089,1236.735474 1054.085327,1236.735474 1062.884644,1236.735474 
	C1063.293823,1243.657959 1063.658813,1249.831665 1063.791992,1256.917358 
	C1063.690186,1275.223511 1063.820312,1292.617554 1063.686768,1310.908691 
	C1063.483765,1328.715698 1063.889771,1345.664917 1057.185059,1362.259766 
	C1050.448242,1374.053955 1039.899658,1379.080933 1027.105591,1382.072510 
	C1008.044495,1383.794800 990.781982,1382.119263 976.000549,1368.986572 
	C973.786560,1366.268066 971.778320,1364.154907 969.943115,1361.251465 
	C966.113586,1348.461060 965.246399,1336.082886 965.451050,1323.536133 
	C965.525635,1318.967529 965.016846,1314.389160 965.015442,1308.919922 
	C965.124207,1290.723389 964.991821,1273.422119 964.859436,1256.120850 
z"/>
<path fill="#060606" opacity="1.000000" stroke="none" 
	d="
M1203.757568,1310.046997 
	C1203.885986,1292.627075 1204.014404,1275.207031 1204.091797,1255.966553 
	C1204.040771,1248.297363 1204.040771,1242.448608 1204.040771,1235.548218 
	C1214.821899,1235.548218 1224.366577,1235.548218 1234.639526,1235.755371 
	C1239.209473,1235.575684 1240.190552,1238.525146 1241.416016,1241.167969 
	C1244.122925,1247.006104 1246.813721,1252.851562 1249.616455,1259.410034 
	C1257.269531,1278.060547 1264.817261,1295.995239 1272.299438,1314.552246 
	C1273.167114,1316.741943 1274.100342,1318.309204 1276.166016,1321.778320 
	C1275.746094,1317.560669 1275.563354,1315.725342 1275.519775,1312.969238 
	C1275.550781,1293.400513 1275.442627,1274.752563 1275.545166,1255.204346 
	C1275.913452,1248.270996 1276.071045,1242.237793 1276.224731,1236.355103 
	C1280.268799,1236.012085 1283.178711,1235.765381 1286.951660,1235.697266 
	C1292.020630,1235.876099 1296.226807,1235.876099 1300.720581,1235.876099 
	C1301.078491,1243.393555 1301.377197,1249.665649 1301.363892,1256.618408 
	C1301.283081,1274.841431 1301.514038,1292.383789 1301.517944,1310.844971 
	C1301.447021,1328.529907 1301.603394,1345.296387 1301.480713,1362.918701 
	C1301.201660,1368.897461 1301.201660,1374.020142 1301.201660,1379.499512 
	C1295.445435,1379.876831 1290.676636,1380.189453 1285.069092,1380.337036 
	C1280.369141,1380.171875 1276.507690,1380.171875 1273.099854,1380.171875 
	C1269.821533,1373.563965 1266.948608,1367.773438 1264.085327,1361.247070 
	C1258.604248,1347.678345 1253.270020,1334.775757 1247.578369,1322.032715 
	C1242.064697,1309.688110 1237.652466,1296.803223 1229.443481,1285.434448 
	C1229.443481,1316.645874 1229.443481,1347.857300 1229.443481,1379.618896 
	C1220.598022,1379.618896 1212.375366,1379.618896 1204.181396,1378.740356 
	C1204.051392,1372.557373 1203.892944,1367.252808 1203.897461,1361.026855 
	C1203.959351,1343.419312 1203.858521,1326.733154 1203.757568,1310.046997 
z"/>
<path fill="#060606" opacity="1.000000" stroke="none" 
	d="
M1129.907104,1235.403687 
	C1134.864868,1235.632202 1139.828491,1235.774048 1144.779541,1236.104004 
	C1168.269653,1237.669312 1183.036499,1252.866089 1183.404785,1276.957275 
	C1183.513184,1284.043823 1181.105225,1291.168701 1179.059814,1299.358154 
	C1176.715942,1303.574951 1175.162842,1306.709595 1173.097168,1310.030518 
	C1171.647583,1311.300171 1170.710449,1312.383667 1169.083252,1313.655273 
	C1166.866943,1314.953125 1165.340698,1316.062500 1163.555786,1317.359985 
	C1165.696899,1321.894409 1167.637939,1326.005249 1169.649170,1330.858887 
	C1172.997559,1339.799316 1176.275879,1347.996948 1179.656006,1356.849854 
	C1180.582886,1359.005981 1181.407959,1360.507080 1182.276611,1362.669678 
	C1183.495728,1365.654297 1184.671387,1367.977539 1185.860352,1371.021362 
	C1186.572144,1374.490479 1187.270630,1377.239014 1187.204468,1380.015503 
	C1184.929321,1380.187866 1183.418579,1380.332153 1180.996094,1380.325684 
	C1171.670654,1380.175049 1163.256958,1380.175049 1155.322021,1380.175049 
	C1152.692505,1373.397583 1150.465210,1367.656616 1148.273071,1361.140503 
	C1144.466187,1349.457031 1140.574219,1338.565918 1136.811279,1327.630371 
	C1135.616821,1324.159302 1134.279175,1321.333374 1129.034668,1322.988892 
	C1125.768311,1323.024902 1123.291382,1323.271484 1120.724731,1323.526855 
	C1120.724731,1336.856934 1120.724731,1349.350586 1120.484985,1362.640869 
	C1120.376099,1365.638306 1120.506958,1367.838989 1120.464600,1370.921997 
	C1120.159668,1374.322998 1120.027954,1376.841919 1119.899170,1379.306519 
	C1109.275391,1379.306519 1099.303345,1379.306519 1089.177979,1379.306519 
	C1088.762451,1373.049805 1088.395874,1367.528198 1088.245850,1361.090576 
	C1088.343262,1343.441528 1088.223877,1326.708618 1088.352539,1309.067871 
	C1088.405640,1290.774658 1088.211060,1273.389038 1088.219971,1255.110840 
	C1088.423706,1248.357056 1088.423706,1242.495972 1088.423706,1235.403687 
	C1102.971436,1235.403687 1116.439209,1235.403687 1129.907104,1235.403687 
M1131.661255,1298.374878 
	C1145.394043,1298.227661 1151.112915,1293.375366 1151.941040,1281.184570 
	C1152.877441,1267.400757 1146.245605,1257.429810 1128.284424,1259.603149 
	C1125.786133,1259.782471 1123.287964,1259.961792 1120.741821,1260.144531 
	C1120.741821,1273.181396 1120.741821,1285.545654 1120.741821,1298.627930 
	C1124.217285,1298.377075 1127.113037,1298.168213 1131.661255,1298.374878 
z"/>
<path fill="#060606" opacity="1.000000" stroke="none" 
	d="
M512.946899,1382.064819 
	C500.562927,1378.567871 490.795135,1372.584473 483.121063,1361.438110 
	C472.685120,1344.979248 470.474152,1327.700928 469.824829,1310.035522 
	C470.651093,1301.498413 470.573700,1292.745605 472.544800,1284.481567 
	C474.739563,1275.279907 478.798645,1266.522827 482.160889,1256.851318 
	C489.861725,1246.376709 498.641174,1238.289185 512.626221,1235.041016 
	C530.708557,1232.451050 546.527527,1233.941406 560.619141,1245.363892 
	C563.460571,1249.285400 565.993408,1252.592651 568.622681,1256.611572 
	C572.650696,1265.340820 575.155273,1273.718628 575.631409,1282.843018 
	C571.461243,1284.047363 567.711243,1285.130371 563.158752,1286.113647 
	C557.540405,1286.707642 552.724548,1287.401367 547.720886,1288.122192 
	C546.507080,1282.754517 545.866577,1278.129761 544.390686,1273.788818 
	C541.755737,1266.038696 536.829102,1260.496460 528.036682,1259.865845 
	C518.917908,1259.212036 512.812744,1263.321533 509.115204,1272.342529 
	C503.782440,1284.778076 502.896851,1297.266602 503.768799,1310.897217 
	C503.784882,1323.567505 503.300903,1335.458740 510.023682,1346.716309 
	C517.867004,1356.706787 525.505981,1359.375122 534.088135,1355.797241 
	C542.751648,1352.185425 546.862854,1342.932373 545.937622,1327.734131 
	C539.329712,1327.734131 532.614258,1327.734131 526.015198,1327.734131 
	C525.559265,1320.941650 525.185608,1315.374146 525.034790,1308.923584 
	C525.027893,1303.511475 528.187927,1303.788940 531.235168,1303.743652 
	C542.121277,1303.582153 553.006653,1303.363281 564.746826,1303.379395 
	C568.820801,1303.592529 572.040161,1303.592529 575.405518,1303.592529 
	C575.864136,1306.308228 576.182068,1308.191162 576.332886,1310.993408 
	C576.260437,1328.584595 576.355103,1345.256592 576.238159,1362.821289 
	C575.920959,1369.067383 575.815369,1374.420776 575.712646,1379.626587 
	C570.974609,1380.006470 567.442078,1380.289795 563.909607,1380.572998 
	C561.438171,1376.214966 558.966675,1371.857056 556.154114,1366.897583 
	C545.746399,1381.593750 530.718506,1384.454712 512.946899,1382.064819 
z"/>
<path fill="#232321" opacity="1.000000" stroke="none" 
	d="
M511.028931,1433.868164 
	C512.559387,1433.836548 513.167175,1434.012695 513.787415,1434.097046 
	C516.119934,1434.413696 519.533630,1433.503296 519.348267,1437.333618 
	C519.164246,1441.136353 515.680237,1439.721924 511.827576,1440.173828 
	C508.363678,1440.303833 506.508759,1440.413086 504.348175,1440.540405 
	C504.348175,1450.115601 504.348175,1459.025757 504.348175,1467.935913 
	C504.200317,1472.847046 504.313721,1477.788696 503.749023,1482.651367 
	C503.574432,1484.154785 501.554321,1485.443848 500.379211,1486.831055 
	C499.670197,1486.546997 498.961212,1486.263062 498.252228,1485.979004 
	C498.067474,1480.559082 497.882690,1475.139038 497.513977,1468.817871 
	C497.330017,1459.018677 497.330017,1450.120728 497.330017,1440.633789 
	C492.081268,1440.260254 487.279419,1439.918457 482.699036,1439.592529 
	C481.178802,1435.480469 482.824890,1434.173950 486.189453,1434.156738 
	C494.163635,1434.115967 502.137817,1434.074829 511.028931,1433.868164 
z"/>
<path fill="#060606" opacity="1.000000" stroke="none" 
	d="
M1458.318237,1241.142822 
	C1458.382324,1246.113037 1458.260132,1250.235962 1458.345215,1255.221558 
	C1458.244507,1257.990845 1457.936646,1259.897583 1457.438110,1262.985229 
	C1452.274658,1262.985229 1447.097290,1262.985229 1441.013916,1263.003296 
	C1436.512695,1263.021362 1432.917725,1263.021362 1428.209839,1263.021362 
	C1428.209839,1278.547363 1428.209839,1293.403442 1428.244141,1310.098267 
	C1428.390991,1328.590088 1428.503662,1345.243286 1428.616211,1361.896362 
	C1428.412964,1367.306274 1428.209717,1372.716309 1426.976562,1379.048584 
	C1416.066895,1379.755249 1406.187134,1379.539673 1396.441162,1378.475830 
	C1396.390381,1372.419922 1396.205811,1367.212280 1396.215088,1361.084473 
	C1396.293701,1343.437988 1396.178589,1326.711914 1396.311035,1309.077637 
	C1396.558838,1293.356934 1396.558838,1278.544189 1396.558838,1262.990601 
	C1393.465698,1263.324585 1391.605591,1263.525513 1388.880493,1263.427490 
	C1381.301392,1263.128784 1374.587280,1263.128784 1368.050293,1263.128784 
	C1367.330688,1259.920288 1366.910278,1258.045776 1366.815552,1255.291016 
	C1367.141235,1248.549927 1367.141235,1242.689087 1367.141235,1235.482422 
	C1375.697998,1235.482422 1382.900757,1235.482422 1391.021484,1235.645996 
	C1407.933716,1235.712280 1423.927979,1235.614868 1439.922363,1235.517578 
	C1444.756714,1235.684570 1449.590454,1235.957031 1454.425537,1235.980713 
	C1457.520996,1235.995972 1458.204102,1237.736694 1458.318237,1241.142822 
z"/>
<path fill="#232321" opacity="1.000000" stroke="none" 
	d="
M1063.397339,1468.089600 
	C1061.123413,1456.679321 1059.127686,1446.006348 1057.134399,1435.345337 
	C1061.348999,1433.502319 1063.287598,1434.381104 1064.019165,1438.364868 
	C1065.936768,1448.807739 1068.015259,1459.221680 1070.107178,1469.631470 
	C1070.754517,1472.852905 1071.651001,1476.024170 1073.675903,1479.328247 
	C1076.743408,1466.953125 1079.811035,1454.578125 1083.220093,1440.760010 
	C1084.028442,1434.313354 1086.951538,1433.610962 1091.710938,1435.122803 
	C1094.472168,1445.900269 1097.298340,1456.931274 1100.037842,1468.731201 
	C1100.744995,1472.861328 1101.538940,1476.222534 1102.332886,1479.583862 
	C1102.929932,1479.551270 1103.526978,1479.518677 1104.123901,1479.486084 
	C1104.733887,1475.652588 1105.343872,1471.818970 1106.262817,1467.260010 
	C1108.486084,1457.513550 1110.357910,1448.483154 1112.334351,1439.475708 
	C1113.172852,1435.654419 1114.549927,1432.424316 1119.869873,1435.359131 
	C1117.728882,1446.308716 1115.591553,1457.238770 1113.454346,1468.168945 
	C1111.907837,1473.766602 1110.361328,1479.364136 1108.606079,1485.717651 
	C1105.735107,1485.922607 1102.609009,1486.145752 1098.577881,1486.433594 
	C1097.003052,1480.610596 1095.502441,1475.062134 1093.748169,1467.981934 
	C1091.994873,1460.753418 1090.495239,1455.056763 1088.995605,1449.360229 
	C1088.302734,1449.419922 1087.609863,1449.479736 1086.916870,1449.539551 
	C1085.557983,1455.584717 1084.198975,1461.629883 1082.840088,1467.675049 
	C1081.359619,1473.380981 1079.879028,1479.086792 1078.183838,1485.502197 
	C1074.712646,1486.211670 1071.456177,1486.211670 1067.419312,1486.211670 
	C1066.133301,1480.239746 1064.904419,1474.533325 1063.397339,1468.089600 
z"/>
<path fill="#060606" opacity="1.000000" stroke="none" 
	d="
M770.080017,1235.541382 
	C783.915527,1237.247925 795.937439,1242.019775 803.606873,1256.307861 
	C811.105652,1276.093994 809.779663,1293.659302 797.343872,1310.315796 
	C794.039062,1312.929810 791.385986,1315.225952 788.449158,1317.767944 
	C794.971252,1332.781616 801.345337,1347.454590 807.719360,1362.127563 
	C809.602600,1367.708374 811.485840,1373.289062 813.581604,1379.499756 
	C802.279846,1379.499756 791.478210,1379.499756 779.607117,1379.499756 
	C773.165466,1360.992920 766.546814,1341.977661 759.985229,1323.126221 
	C754.863708,1323.126221 750.344849,1323.126221 744.812683,1323.126221 
	C744.812683,1335.915039 744.812683,1348.141235 744.898438,1362.145264 
	C744.984253,1369.102173 744.984253,1374.281128 744.984253,1380.484619 
	C735.197693,1380.484619 726.641418,1380.484619 717.414856,1380.280396 
	C715.810791,1380.057861 714.876892,1380.039551 713.732971,1379.124512 
	C713.208618,1372.730957 712.894409,1367.234009 712.787415,1360.841309 
	C712.857849,1343.361206 712.721069,1326.776855 712.908813,1309.296631 
	C712.961243,1290.912231 712.689209,1273.423950 712.620972,1255.144165 
	C712.914062,1249.570190 713.129700,1244.785400 713.050720,1240.005615 
	C712.992798,1236.501221 715.272034,1235.876465 718.830078,1235.643555 
	C736.529236,1235.743896 753.304626,1235.642578 770.080017,1235.541382 
M753.409546,1259.801147 
	C750.864136,1259.936768 748.318665,1260.072388 745.813049,1260.205933 
	C745.813049,1273.349731 745.813049,1285.721924 745.813049,1298.249268 
	C751.827454,1298.249268 757.135986,1298.672852 762.349609,1298.149902 
	C770.138367,1297.368652 774.636292,1292.680054 776.190918,1284.788208 
	C778.261292,1274.278320 775.467468,1265.445435 768.729492,1261.844604 
	C767.027893,1260.935181 765.027100,1260.390381 763.103516,1260.138916 
	C760.484985,1259.796265 757.808472,1259.896118 753.409546,1259.801147 
z"/>
<path fill="#232321" opacity="1.000000" stroke="none" 
	d="
M761.548218,1467.027588 
	C761.489014,1473.814087 761.204407,1479.692261 760.906250,1485.849976 
	C758.909729,1485.849976 757.366577,1485.849976 755.409912,1485.849976 
	C755.033936,1478.350220 754.675354,1471.197510 754.288147,1463.472534 
	C745.899231,1463.472534 738.181946,1463.472534 729.153809,1463.472534 
	C729.153809,1469.985107 729.278931,1476.180054 729.103210,1482.366577 
	C729.009338,1485.674805 728.775269,1485.668213 722.546326,1485.292236 
	C722.546326,1480.136353 722.546326,1474.908691 722.355286,1468.818359 
	C722.314392,1458.334106 722.501709,1448.712891 722.596313,1439.090698 
	C722.633484,1435.304077 723.810303,1433.268799 729.101746,1435.380615 
	C729.101746,1442.082153 729.101746,1449.215576 729.101746,1456.838623 
	C738.038086,1456.838623 745.835144,1456.838623 754.589417,1456.838623 
	C754.934082,1449.276123 755.259460,1442.136841 755.576538,1435.179932 
	C759.373108,1433.348999 761.061646,1434.664917 761.113403,1438.187012 
	C761.250183,1447.496704 761.261536,1456.808350 761.548218,1467.027588 
z"/>
<path fill="#232321" opacity="1.000000" stroke="none" 
	d="
M569.891235,1468.834229 
	C569.699341,1457.036865 569.699341,1446.134399 569.699341,1434.733398 
	C574.310425,1434.733398 577.803406,1434.733398 581.537292,1434.733398 
	C587.875244,1448.956421 594.169189,1463.080688 600.463135,1477.204956 
	C601.063293,1477.110718 601.663513,1477.016479 602.263733,1476.922241 
	C602.263733,1462.966309 602.263733,1449.010376 602.263733,1435.494263 
	C607.872253,1432.926147 609.283386,1435.000732 609.267334,1439.305298 
	C609.233826,1448.280151 609.288574,1457.255249 609.550537,1467.142700 
	C609.321289,1473.623413 608.848633,1479.191772 608.296204,1485.700439 
	C605.336548,1485.905151 602.247314,1486.118774 598.601562,1486.370850 
	C595.467407,1479.502319 592.473328,1472.940674 588.837524,1465.188965 
	C584.996643,1457.223267 581.797485,1450.447876 578.384888,1443.088745 
	C577.641113,1443.028931 577.110718,1443.552612 576.443970,1444.982910 
	C576.408936,1453.235107 576.510376,1460.580811 576.611755,1467.926514 
	C576.335510,1473.765869 576.059265,1479.605225 575.776428,1485.584106 
	C572.426147,1486.518311 570.220154,1486.348755 570.154114,1482.533081 
	C570.080200,1478.265991 570.102600,1473.997192 569.891235,1468.834229 
z"/>
<path fill="#232321" opacity="1.000000" stroke="none" 
	d="
M668.093506,1459.582275 
	C668.772400,1461.858154 669.451294,1464.133911 670.097046,1468.018799 
	C670.041565,1473.790039 670.393066,1478.005493 669.811890,1482.088135 
	C669.580994,1483.710205 667.283386,1485.037964 665.926697,1486.499756 
	C663.003113,1486.755493 660.083191,1487.174316 657.155396,1487.238525 
	C645.014648,1487.504761 635.671631,1485.769287 632.215088,1468.702271 
	C632.478210,1461.416748 632.265015,1454.651733 633.708069,1448.260620 
	C636.083679,1437.738403 641.324341,1434.021118 652.177490,1433.742676 
	C656.160522,1433.640625 660.156616,1434.048828 665.056152,1434.170776 
	C667.454834,1436.125854 672.937073,1437.409058 665.885864,1440.503174 
	C642.734192,1437.710205 636.165039,1444.325562 638.743530,1466.356934 
	C638.814819,1466.965942 639.310181,1467.525146 639.562500,1468.872437 
	C643.324646,1481.457886 650.153259,1484.265869 663.434692,1479.355713 
	C663.434692,1474.901489 663.434692,1470.399048 663.434692,1465.519165 
	C661.361145,1465.519165 659.770386,1465.519165 657.578735,1465.016235 
	C655.303772,1462.228638 655.019165,1460.238281 658.530334,1459.880737 
	C661.695374,1459.558350 664.904053,1459.665039 668.093506,1459.582275 
z"/>
<path fill="#232321" opacity="1.000000" stroke="none" 
	d="
M539.171814,1468.458252 
	C539.299194,1456.739136 539.627502,1445.844971 539.950684,1435.119385 
	C544.922424,1433.292114 545.780090,1435.662109 545.782593,1439.227173 
	C545.788879,1448.220581 545.855591,1457.213867 546.080811,1467.130859 
	C546.134827,1472.982178 546.099670,1477.915039 545.836487,1482.835693 
	C545.711487,1485.171875 545.514343,1485.161377 539.372681,1485.845215 
	C539.372681,1480.274658 539.372681,1474.778931 539.171814,1468.458252 
z"/>
<path fill="#060606" opacity="1.000000" stroke="none" 
	d="
M589.695435,1362.721313 
	C594.859375,1345.021606 600.074158,1328.099243 605.344604,1310.304199 
	C609.637390,1295.472900 613.874390,1281.514282 618.299561,1266.287598 
	C618.388245,1264.666870 618.288879,1264.314575 618.189514,1263.962158 
	C618.242432,1263.130249 618.295410,1262.298218 618.976074,1260.600098 
	C620.010620,1258.564941 620.417542,1257.395874 620.824341,1256.226807 
	C622.979187,1249.724976 625.133972,1243.223145 627.395935,1236.397949 
	C638.147400,1236.397949 648.667847,1236.397949 660.057251,1236.397949 
	C660.784729,1238.319458 661.687500,1240.703857 663.186768,1244.344238 
	C664.771301,1249.010864 665.759216,1252.421753 666.728149,1256.589600 
	C672.221069,1275.872925 677.732971,1294.399170 683.330872,1313.682861 
	C688.258179,1330.297607 693.099548,1346.155151 697.874634,1362.732666 
	C698.891846,1367.078491 699.975220,1370.704224 701.050598,1374.804932 
	C701.042542,1375.279907 701.731445,1375.933960 701.672180,1376.793335 
	C700.141113,1378.435791 698.677063,1379.877197 697.196167,1379.894653 
	C687.731873,1380.007080 678.263855,1379.806519 668.797058,1379.708740 
	C667.531067,1374.209351 666.265076,1368.709961 664.675049,1361.760254 
	C663.493164,1357.164185 662.635254,1354.018311 661.656494,1350.428955 
	C654.721558,1350.428955 648.162170,1350.428955 641.602783,1350.428955 
	C635.105408,1350.428955 628.608093,1350.428955 622.332520,1350.428955 
	C621.394470,1352.548950 620.641113,1353.690186 620.394165,1354.932007 
	C619.948792,1357.171753 619.806580,1359.471558 619.537720,1361.746338 
	C618.192261,1367.026001 616.846741,1372.305542 615.439697,1378.331299 
	C605.808411,1379.526123 596.238525,1379.974609 585.165100,1380.493652 
	C586.914673,1374.003052 588.330444,1368.750977 589.695435,1362.721313 
M631.692383,1311.286377 
	C630.654114,1315.650513 629.615845,1320.014648 628.473938,1324.814575 
	C638.001038,1324.814575 646.181091,1324.814575 655.447876,1324.814575 
	C654.037231,1319.370361 652.814636,1314.651611 651.575378,1308.378052 
	C648.636047,1296.392334 645.696777,1284.406494 642.757446,1272.420776 
	C642.011047,1272.464111 641.264648,1272.507446 640.518250,1272.550781 
	C637.797607,1285.014404 635.076965,1297.477905 631.692383,1311.286377 
z"/>
<path fill="#060606" opacity="1.000000" stroke="none" 
	d="
M1356.535889,1257.181641 
	C1356.650024,1274.735107 1356.529907,1291.384399 1356.312378,1309.864502 
	C1356.379272,1328.505981 1356.543579,1345.316284 1356.707764,1362.126709 
	C1356.707886,1367.640015 1356.707886,1373.153442 1356.707886,1380.149414 
	C1350.655396,1380.149414 1345.275146,1380.149414 1338.200684,1380.116943 
	C1334.334717,1380.203491 1332.162964,1380.322388 1329.991211,1380.441406 
	C1328.424438,1380.075073 1326.857666,1379.708740 1324.556763,1379.170776 
	C1324.556763,1374.037354 1324.556763,1368.878784 1324.304443,1362.865723 
	C1324.185303,1345.282104 1324.318481,1328.552979 1324.277832,1310.898804 
	C1324.269531,1292.594116 1324.435303,1275.214355 1324.346680,1256.928711 
	C1324.397705,1249.590210 1324.702759,1243.157715 1325.049927,1235.837524 
	C1329.176392,1235.837524 1332.687866,1235.837524 1337.058838,1235.669678 
	C1343.706787,1235.812012 1349.495239,1236.122192 1356.301880,1236.486938 
	C1356.301880,1243.383545 1356.301880,1249.830322 1356.535889,1257.181641 
z"/>
<path fill="#232321" opacity="1.000000" stroke="none" 
	d="
M1234.013306,1456.053833 
	C1240.886230,1456.053833 1247.759277,1456.053833 1255.769043,1456.053833 
	C1255.769043,1448.832031 1255.769043,1441.753296 1255.769043,1435.013916 
	C1261.305420,1433.433228 1261.912354,1436.088745 1261.910522,1439.473999 
	C1261.905640,1448.386230 1261.938599,1457.298584 1262.136963,1467.135010 
	C1262.317383,1473.696777 1262.317383,1479.334473 1262.317383,1485.451172 
	C1260.039673,1485.780518 1258.280029,1486.034912 1255.599854,1486.422485 
	C1255.599854,1480.349365 1255.599854,1475.102173 1255.464355,1468.976074 
	C1255.328735,1466.502686 1255.328735,1464.907959 1255.328735,1462.886475 
	C1246.961426,1462.886475 1238.884888,1462.886475 1229.762085,1462.886475 
	C1229.762085,1469.472412 1229.713745,1475.638306 1229.781250,1481.802979 
	C1229.818115,1485.160767 1228.470337,1486.730469 1223.603638,1485.703247 
	C1223.603638,1480.592529 1223.603638,1475.141357 1223.583252,1467.866577 
	C1223.562866,1455.498535 1223.562866,1444.954102 1223.562866,1434.792480 
	C1228.199219,1433.710693 1230.075195,1434.741455 1230.057251,1438.359863 
	C1230.032349,1443.358398 1230.054321,1448.357300 1230.081421,1453.355835 
	C1230.096191,1456.107544 1231.680054,1456.644287 1234.013306,1456.053833 
z"/>
<path fill="#232321" opacity="1.000000" stroke="none" 
	d="
M1182.057739,1433.756104 
	C1188.025269,1433.903564 1193.995850,1433.976562 1199.958740,1434.231445 
	C1202.710571,1434.349121 1202.703735,1434.510376 1203.719604,1439.687012 
	C1199.087036,1439.937134 1194.528687,1440.183228 1188.634155,1440.501465 
	C1188.634155,1449.091431 1188.634155,1457.596313 1188.786133,1467.015381 
	C1188.785034,1472.881104 1188.585083,1477.832031 1188.495117,1482.784912 
	C1188.436279,1486.035522 1186.543823,1486.564331 1183.004395,1485.959839 
	C1182.073120,1480.460205 1182.023926,1475.143921 1182.042236,1468.032349 
	C1182.109985,1457.716309 1182.109985,1449.195557 1182.109985,1440.398193 
	C1176.378906,1440.113159 1171.688110,1439.879883 1166.997314,1439.646606 
	C1167.725464,1436.454590 1168.834229,1434.573364 1170.188965,1434.375366 
	C1174.092041,1433.804932 1178.094360,1433.913940 1182.057739,1433.756104 
z"/>
<path fill="#232321" opacity="1.000000" stroke="none" 
	d="
M1140.255371,1468.868042 
	C1140.169556,1458.416138 1140.298096,1448.850220 1140.368896,1439.284058 
	C1140.394897,1435.776733 1141.242065,1433.366699 1146.881470,1435.130371 
	C1146.881470,1445.208862 1146.881470,1455.633911 1147.182373,1466.941895 
	C1147.186523,1473.650391 1146.889526,1479.475952 1146.589722,1485.357300 
	C1143.215942,1486.853027 1140.632202,1487.035278 1140.494263,1482.488281 
	C1140.365723,1478.246948 1140.453979,1473.999023 1140.255371,1468.868042 
z"/>
</svg>